<svg width="40" height="40" viewBox="0 0 40 40" fill="none" xmlns="http://www.w3.org/2000/svg">
<g clip-path="url(#clip0_271_13031)">
<path d="M20 40C31.0457 40 40 31.0457 40 20C40 8.95434 31.0457 3.05176e-05 20 3.05176e-05C8.95431 3.05176e-05 0 8.95434 0 20C0 31.0457 8.95431 40 20 40Z" fill="#F0F0F0"/>
<path d="M4.13484 7.82376C2.56383 9.86775 1.37922 12.2236 0.689453 14.7829H11.094L4.13484 7.82376Z" fill="#0052B4"/>
<path d="M39.3116 14.7829C38.6218 12.2237 37.4372 9.86787 35.8662 7.82388L28.9072 14.7829H39.3116Z" fill="#0052B4"/>
<path d="M0.689453 25.2177C1.3793 27.7769 2.56391 30.1328 4.13484 32.1767L11.0938 25.2177H0.689453Z" fill="#0052B4"/>
<path d="M32.1768 4.13459C30.1329 2.56357 27.7771 1.37896 25.2178 0.689117V11.0936L32.1768 4.13459Z" fill="#0052B4"/>
<path d="M7.82422 35.8657C9.8682 37.4367 12.2241 38.6213 14.7833 39.3112V28.9068L7.82422 35.8657Z" fill="#0052B4"/>
<path d="M14.7832 0.689117C12.224 1.37896 9.86813 2.56357 7.82422 4.13451L14.7832 11.0935V0.689117Z" fill="#0052B4"/>
<path d="M25.2178 39.3112C27.777 38.6213 30.1329 37.4367 32.1768 35.8658L25.2178 28.9068V39.3112Z" fill="#0052B4"/>
<path d="M28.9072 25.2177L35.8662 32.1767C37.4372 30.1328 38.6218 27.7769 39.3116 25.2177H28.9072Z" fill="#0052B4"/>
<path d="M39.8307 17.3914H22.6088H22.6088V0.169327C21.7548 0.0581555 20.8841 3.05176e-05 20 3.05176e-05C19.1157 3.05176e-05 18.2452 0.0581555 17.3913 0.169327V17.3912V17.3913H0.169297C0.058125 18.2453 0 19.1159 0 20C0 20.8843 0.058125 21.7548 0.169297 22.6087H17.3912H17.3913V39.8307C18.2452 39.9419 19.1157 40 20 40C20.8841 40 21.7548 39.942 22.6087 39.8307V22.6089V22.6088H39.8307C39.9419 21.7548 40 20.8843 40 20C40 19.1159 39.9419 18.2453 39.8307 17.3914Z" fill="#D80027"/>
<path d="M25.2168 25.2176L34.1415 34.1423C34.552 33.7319 34.9435 33.303 35.3171 32.8583L27.6763 25.2175H25.2168V25.2176Z" fill="#D80027"/>
<path d="M14.7822 25.2175H14.782L5.85742 34.1421C6.26773 34.5526 6.69672 34.9441 7.14141 35.3177L14.7822 27.6768V25.2175Z" fill="#D80027"/>
<path d="M14.7819 14.7828V14.7826L5.85727 5.85785C5.4468 6.26816 5.05523 6.69715 4.68164 7.14183L12.3225 14.7827H14.7819V14.7828Z" fill="#D80027"/>
<path d="M25.2168 14.7828L34.1416 5.85798C33.7312 5.44751 33.3023 5.05595 32.8576 4.68243L25.2168 12.3233V14.7828Z" fill="#D80027"/>
</g>
<defs>
<clipPath id="clip0_271_13031">
<rect width="40" height="40" fill="white"/>
</clipPath>
</defs>
</svg>
