<svg xmlns="http://www.w3.org/2000/svg" width="20" height="20" viewBox="0 0 20 20" fill="none">
<path d="M15.592 6.00822C15.5146 5.93011 15.4224 5.86811 15.3208 5.82581C15.2193 5.7835 15.1104 5.76172 15.0004 5.76172C14.8904 5.76172 14.7814 5.7835 14.6799 5.82581C14.5783 5.86811 14.4862 5.93011 14.4087 6.00822L8.20037 12.2249L5.59203 9.60822C5.5116 9.53052 5.41665 9.46942 5.3126 9.42842C5.20856 9.38742 5.09745 9.36731 4.98564 9.36924C4.87382 9.37118 4.76348 9.39512 4.66091 9.43969C4.55835 9.48427 4.46557 9.54862 4.38787 9.62905C4.31017 9.70949 4.24907 9.80444 4.20807 9.90848C4.16707 10.0125 4.14696 10.1236 4.14889 10.2354C4.15083 10.3473 4.17477 10.4576 4.21935 10.5602C4.26392 10.6627 4.32827 10.7555 4.4087 10.8332L7.6087 14.0332C7.68617 14.1113 7.77834 14.1733 7.87989 14.2156C7.98144 14.2579 8.09036 14.2797 8.20037 14.2797C8.31038 14.2797 8.4193 14.2579 8.52085 14.2156C8.6224 14.1733 8.71457 14.1113 8.79203 14.0332L15.592 7.23322C15.6766 7.15518 15.7441 7.06047 15.7903 6.95506C15.8365 6.84964 15.8603 6.7358 15.8603 6.62072C15.8603 6.50563 15.8365 6.39179 15.7903 6.28638C15.7441 6.18096 15.6766 6.08625 15.592 6.00822Z" fill="#111111"/>
</svg>
