
<svg xmlns="http://www.w3.org/2000/svg" width="24" height="25" viewBox="0 0 24 25" fill="none">
<path d="M15.5397 11.9844L9.87974 6.33437C9.78677 6.24064 9.67617 6.16625 9.55431 6.11548C9.43246 6.06471 9.30175 6.03857 9.16974 6.03857C9.03773 6.03857 8.90702 6.06471 8.78516 6.11548C8.6633 6.16625 8.5527 6.24064 8.45974 6.33437C8.27349 6.52173 8.16895 6.77519 8.16895 7.03937C8.16895 7.30356 8.27349 7.55701 8.45974 7.74437L13.4097 12.7444L8.45974 17.6944C8.27349 17.8817 8.16895 18.1352 8.16895 18.3994C8.16895 18.6636 8.27349 18.917 8.45974 19.1044C8.55235 19.1989 8.6628 19.274 8.78467 19.3255C8.90655 19.377 9.03743 19.4038 9.16974 19.4044C9.30204 19.4038 9.43293 19.377 9.5548 19.3255C9.67668 19.274 9.78712 19.1989 9.87974 19.1044L15.5397 13.4544C15.6412 13.3607 15.7223 13.2471 15.7777 13.1206C15.8331 12.9941 15.8617 12.8575 15.8617 12.7194C15.8617 12.5813 15.8331 12.4447 15.7777 12.3182C15.7223 12.1917 15.6412 12.078 15.5397 11.9844Z" fill="#ABC022"/>
</svg>
