
<svg xmlns="http://www.w3.org/2000/svg" width="24" height="25" viewBox="0 0 24 25" fill="none">
<path d="M8.49054 13.4585L14.1505 19.1085C14.2435 19.2022 14.3541 19.2766 14.476 19.3274C14.5978 19.3782 14.7285 19.4043 14.8605 19.4043C14.9925 19.4043 15.1233 19.3782 15.2451 19.3274C15.367 19.2766 15.4776 19.2022 15.5705 19.1085C15.7568 18.9211 15.8613 18.6677 15.8613 18.4035C15.8613 18.1393 15.7568 17.8859 15.5705 17.6985L10.6205 12.6985L15.5705 7.7485C15.7568 7.56114 15.8613 7.30768 15.8613 7.0435C15.8613 6.77931 15.7568 6.52586 15.5705 6.3385C15.4779 6.24401 15.3675 6.16884 15.2456 6.11734C15.1237 6.06585 14.9928 6.03905 14.8605 6.0385C14.7282 6.03905 14.5973 6.06585 14.4755 6.11734C14.3536 6.16884 14.2432 6.24401 14.1505 6.3385L8.49054 11.9885C8.38903 12.0821 8.30802 12.1958 8.25261 12.3223C8.19721 12.4488 8.1686 12.5854 8.1686 12.7235C8.1686 12.8616 8.19721 12.9982 8.25261 13.1247C8.30802 13.2512 8.38903 13.3649 8.49054 13.4585Z" fill="#ABC022"/>
</svg>
