
<svg xmlns="http://www.w3.org/2000/svg" width="24" height="25" viewBox="0 0 24 25" fill="none">
<mask id="mask0_1181_798" style="mask-type:alpha" maskUnits="userSpaceOnUse" x="0" y="0" width="24" height="25">
<rect y="0.694336" width="24" height="24" fill="#D9D9D9"/>
</mask>
<g mask="url(#mask0_1181_798)">
<path d="M16.8998 17.9944L12.2998 13.3944C12.1998 13.2944 12.129 13.1861 12.0873 13.0694C12.0456 12.9528 12.0248 12.8278 12.0248 12.6944C12.0248 12.5611 12.0456 12.4361 12.0873 12.3194C12.129 12.2028 12.1998 12.0944 12.2998 11.9944L16.8998 7.39445C17.0831 7.21111 17.3123 7.11528 17.5873 7.10695C17.8623 7.09861 18.0998 7.19445 18.2998 7.39445C18.4831 7.57778 18.5748 7.81111 18.5748 8.09445C18.5748 8.37778 18.4831 8.61111 18.2998 8.79445L14.4248 12.6944L18.2998 16.5944C18.4831 16.7778 18.579 17.0069 18.5873 17.2819C18.5956 17.5569 18.4998 17.7944 18.2998 17.9944C18.1165 18.1778 17.8831 18.2694 17.5998 18.2694C17.3165 18.2694 17.0831 18.1778 16.8998 17.9944ZM10.2998 17.9944L5.6998 13.3944C5.5998 13.2944 5.52897 13.1861 5.4873 13.0694C5.44564 12.9528 5.4248 12.8278 5.4248 12.6944C5.4248 12.5611 5.44564 12.4361 5.4873 12.3194C5.52897 12.2028 5.5998 12.0944 5.6998 11.9944L10.2998 7.39445C10.4831 7.21111 10.7123 7.11528 10.9873 7.10695C11.2623 7.09861 11.4998 7.19445 11.6998 7.39445C11.8831 7.57778 11.9748 7.81111 11.9748 8.09445C11.9748 8.37778 11.8831 8.61111 11.6998 8.79445L7.8248 12.6944L11.6998 16.5944C11.8831 16.7778 11.979 17.0069 11.9873 17.2819C11.9956 17.5569 11.8998 17.7944 11.6998 17.9944C11.5165 18.1778 11.2831 18.2694 10.9998 18.2694C10.7165 18.2694 10.4831 18.1778 10.2998 17.9944Z" fill="#ABC022"/>
</g>
</svg>
