
<svg xmlns="http://www.w3.org/2000/svg" width="24" height="25" viewBox="0 0 24 25" fill="none">
<mask id="mask0_1181_821" style="mask-type:alpha" maskUnits="userSpaceOnUse" x="0" y="0" width="24" height="25">
<rect y="0.694336" width="24" height="24" fill="#D9D9D9"/>
</mask>
<g mask="url(#mask0_1181_821)">
<path d="M5.70011 17.9941C5.51678 17.8108 5.42511 17.5775 5.42511 17.2941C5.42511 17.0108 5.51678 16.7775 5.70011 16.5941L9.57511 12.6941L5.70011 8.79414C5.51678 8.61081 5.42094 8.38164 5.41261 8.10664C5.40428 7.83164 5.50011 7.59414 5.70011 7.39414C5.88344 7.21081 6.11678 7.11914 6.40011 7.11914C6.68344 7.11914 6.91678 7.21081 7.10011 7.39414L11.7001 11.9941C11.8001 12.0941 11.8709 12.2025 11.9126 12.3191C11.9543 12.4358 11.9751 12.5608 11.9751 12.6941C11.9751 12.8275 11.9543 12.9525 11.9126 13.0691C11.8709 13.1858 11.8001 13.2941 11.7001 13.3941L7.10011 17.9941C6.91678 18.1775 6.68761 18.2733 6.41261 18.2816C6.13761 18.29 5.90011 18.1941 5.70011 17.9941ZM12.3001 17.9941C12.1168 17.8108 12.0251 17.5775 12.0251 17.2941C12.0251 17.0108 12.1168 16.7775 12.3001 16.5941L16.1751 12.6941L12.3001 8.79414C12.1168 8.61081 12.0209 8.38164 12.0126 8.10664C12.0043 7.83164 12.1001 7.59414 12.3001 7.39414C12.4834 7.21081 12.7168 7.11914 13.0001 7.11914C13.2834 7.11914 13.5168 7.21081 13.7001 7.39414L18.3001 11.9941C18.4001 12.0941 18.4709 12.2025 18.5126 12.3191C18.5543 12.4358 18.5751 12.5608 18.5751 12.6941C18.5751 12.8275 18.5543 12.9525 18.5126 13.0691C18.4709 13.1858 18.4001 13.2941 18.3001 13.3941L13.7001 17.9941C13.5168 18.1775 13.2876 18.2733 13.0126 18.2816C12.7376 18.29 12.5001 18.1941 12.3001 17.9941Z" fill="#ABC022"/>
</g>
</svg>
