<svg xmlns="http://www.w3.org/2000/svg" width="166" height="158" viewBox="0 0 166 158" fill="none">
<path fill-rule="evenodd" clip-rule="evenodd" d="M131.205 0.234619C133.025 0.234619 134.769 0.955422 136.055 2.23754C137.342 3.51965 138.065 5.25805 138.065 7.07124V76.6392C134.761 75.8611 131.318 75.4374 127.776 75.4374C126.622 75.4374 125.478 75.4918 124.346 75.5776V54.9276H96.9091V87.8221C88.4578 95.909 83.1906 107.276 83.1906 119.875C83.1906 125.933 84.4116 131.705 86.6135 136.967H7.73866C5.91947 136.967 4.17531 136.246 2.88895 134.964C1.60258 133.682 0.879395 131.944 0.879395 130.13V7.07124C0.879395 5.25805 1.60258 3.51965 2.88895 2.23754C4.17531 0.95542 5.91947 0.234619 7.73866 0.234619H131.205ZM14.5979 54.9276V123.294H42.035V54.9276H14.5979ZM55.7535 54.9276V123.294H83.1906V54.9276H55.7535ZM14.5979 13.9079V41.2543H124.346V13.9079H14.5979Z" fill="#5E6B09"/>
<path d="M133.244 120.499L137.701 116.091C138.34 115.451 138.698 114.584 138.698 113.682C138.698 112.779 138.34 111.913 137.701 111.272C137.382 110.952 137.003 110.698 136.585 110.524C136.167 110.351 135.719 110.261 135.267 110.261C134.814 110.261 134.366 110.351 133.948 110.524C133.53 110.698 133.151 110.952 132.832 111.272L128.409 115.681L123.986 111.272C123.667 110.952 123.288 110.698 122.87 110.524C122.453 110.351 122.004 110.261 121.552 110.261C121.099 110.261 120.651 110.351 120.233 110.524C119.815 110.698 119.436 110.952 119.117 111.272C118.479 111.913 118.12 112.779 118.12 113.682C118.12 114.584 118.479 115.451 119.117 116.091L123.575 120.499L119.117 124.942C118.479 125.582 118.12 126.448 118.12 127.351C118.12 128.254 118.479 129.12 119.117 129.76C119.436 130.081 119.815 130.335 120.233 130.509C120.651 130.682 121.099 130.771 121.552 130.771C122.004 130.771 122.453 130.682 122.87 130.509C123.288 130.335 123.667 130.081 123.986 129.76L128.409 125.352L132.832 129.76C133.151 130.081 133.53 130.335 133.948 130.509C134.366 130.682 134.814 130.771 135.267 130.771C135.719 130.771 136.167 130.682 136.585 130.509C137.003 130.335 137.382 130.081 137.701 129.76C138.34 129.12 138.698 128.254 138.698 127.351C138.698 126.448 138.34 125.582 137.701 124.942L133.244 120.499Z" fill="#5E6B09"/>
<path d="M164.509 151.632L151.785 139.052C156.724 132.914 159.115 125.124 158.468 117.282C157.821 109.44 154.184 102.144 148.305 96.893C142.426 91.6421 134.752 88.8356 126.861 89.0508C118.97 89.2661 111.461 92.4866 105.879 98.0501C100.297 103.614 97.0663 111.097 96.8503 118.963C96.6344 126.828 99.4501 134.476 104.719 140.336C109.987 146.195 117.308 149.82 125.175 150.465C133.043 151.11 140.859 148.726 147.017 143.804L159.638 156.383C159.957 156.704 160.337 156.958 160.755 157.131C161.172 157.305 161.621 157.394 162.074 157.394C162.526 157.394 162.975 157.305 163.392 157.131C163.81 156.958 164.19 156.704 164.509 156.383C165.127 155.746 165.472 154.894 165.472 154.007C165.472 153.121 165.127 152.269 164.509 151.632ZM127.777 143.804C123.029 143.804 118.387 142.4 114.439 139.771C110.491 137.142 107.414 133.405 105.597 129.032C103.78 124.66 103.305 119.849 104.231 115.207C105.157 110.566 107.444 106.302 110.801 102.956C114.159 99.6094 118.437 97.3304 123.094 96.4072C127.751 95.4839 132.578 95.9577 136.964 97.7688C141.351 99.5799 145.101 102.647 147.739 106.582C150.377 110.517 151.785 115.143 151.785 119.876C151.785 126.222 149.255 132.308 144.753 136.795C140.251 141.283 134.144 143.804 127.777 143.804Z" fill="#5E6B09"/>
</svg>
