<svg xmlns="http://www.w3.org/2000/svg" width="22" height="22" viewBox="0 0 22 22" fill="none">
<path d="M20.0929 10.6333C18.2413 6.33413 14.7579 3.66663 10.9996 3.66663C7.24128 3.66663 3.75794 6.33413 1.90628 10.6333C1.8558 10.7489 1.82975 10.8738 1.82975 11C1.82975 11.1261 1.8558 11.251 1.90628 11.3666C3.75794 15.6658 7.24128 18.3333 10.9996 18.3333C14.7579 18.3333 18.2413 15.6658 20.0929 11.3666C20.1434 11.251 20.1695 11.1261 20.1695 11C20.1695 10.8738 20.1434 10.7489 20.0929 10.6333ZM10.9996 16.5C8.08461 16.5 5.34378 14.4008 3.75794 11C5.34378 7.59913 8.08461 5.49996 10.9996 5.49996C13.9146 5.49996 16.6554 7.59913 18.2413 11C16.6554 14.4008 13.9146 16.5 10.9996 16.5ZM10.9996 7.33329C10.2744 7.33329 9.5655 7.54834 8.96252 7.95124C8.35954 8.35414 7.88957 8.92679 7.61205 9.59679C7.33453 10.2668 7.26192 11.004 7.4034 11.7153C7.54488 12.4266 7.89409 13.0799 8.40689 13.5927C8.91968 14.1055 9.57302 14.4547 10.2843 14.5962C10.9955 14.7377 11.7328 14.665 12.4028 14.3875C13.0728 14.11 13.6454 13.64 14.0483 13.0371C14.4512 12.4341 14.6663 11.7252 14.6663 11C14.6663 10.0275 14.28 9.09487 13.5923 8.40723C12.9047 7.7196 11.9721 7.33329 10.9996 7.33329ZM10.9996 12.8333C10.637 12.8333 10.2826 12.7258 9.98107 12.5243C9.67958 12.3229 9.44459 12.0365 9.30583 11.7015C9.16707 11.3665 9.13077 10.9979 9.20151 10.6423C9.27224 10.2867 9.44685 9.95999 9.70325 9.7036C9.95965 9.4472 10.2863 9.27259 10.6419 9.20185C10.9976 9.13111 11.3662 9.16742 11.7012 9.30618C12.0362 9.44494 12.3225 9.67992 12.524 9.98141C12.7254 10.2829 12.8329 10.6374 12.8329 11C12.8329 11.4862 12.6398 11.9525 12.296 12.2963C11.9522 12.6401 11.4858 12.8333 10.9996 12.8333Z" fill="black"/>
</svg>
