<svg xmlns="http://www.w3.org/2000/svg" width="20" height="20" viewBox="0 0 20 20" fill="none">
<path d="M18.3333 6.03343C18.334 5.92376 18.313 5.81504 18.2715 5.71351C18.23 5.61198 18.1689 5.51963 18.0917 5.44176L14.5583 1.90843C14.4805 1.83119 14.3881 1.77009 14.2866 1.72862C14.1851 1.68715 14.0763 1.66613 13.9667 1.66676C13.857 1.66613 13.7483 1.68715 13.6467 1.72862C13.5452 1.77009 13.4529 1.83119 13.375 1.90843L11.0167 4.26676L1.90834 13.3751C1.8311 13.453 1.77 13.5453 1.72853 13.6468C1.68706 13.7484 1.66604 13.8571 1.66667 13.9668V17.5001C1.66667 17.7211 1.75447 17.9331 1.91075 18.0894C2.06703 18.2456 2.27899 18.3334 2.5 18.3334H6.03334C6.14994 18.3398 6.26658 18.3215 6.37569 18.2799C6.48479 18.2383 6.58393 18.1742 6.66667 18.0918L15.725 8.98343L18.0917 6.66676C18.1677 6.586 18.2297 6.49304 18.275 6.39176C18.283 6.32534 18.283 6.25819 18.275 6.19176C18.2789 6.15297 18.2789 6.11389 18.275 6.0751L18.3333 6.03343ZM5.69167 16.6668H3.33334V14.3084L11.6083 6.03343L13.9667 8.39176L5.69167 16.6668ZM15.1417 7.21676L12.7833 4.85843L13.9667 3.68343L16.3167 6.03343L15.1417 7.21676Z" fill="#111111"/>
</svg>
